<?xml version="1.0" encoding="UTF-8"?>
<svg id="Layer_1" data-name="Layer 1" xmlns="http://www.w3.org/2000/svg" viewBox="0 0 100 100">
  <defs>
    <style>
      .cls-1 {
        fill: #fff;
      }
    </style>
  </defs>
  <path class="cls-1" d="m85,10h-20.07c-2.79,0-4.88-2.31-4.93-5.1S57.73,0,55,0h-10.07c-2.79,0-4.88,2.31-4.93,5.1s-2.27,4.9-5,4.9H15c-2.76,0-5,2.24-5,5v5c0,2.76,2.24,5,5,5h1.33c.67,0,1.23.49,1.32,1.16l4.27,69.5c.33,2.48,2.45,4.34,4.96,4.34h46.24c2.51,0,4.62-1.86,4.96-4.34l4.27-69.5c.09-.66.65-1.16,1.32-1.16,0,0,.55,0,1.33,0,2.76,0,5.01-2.24,5.01-5v-5c0-2.76-2.24-5-5-5Zm-41-5c0-.55.45-1,1-1h10c.55,0,1,.45,1,1,0,1.85.56,3.57,1.52,5h-15.04c.96-1.43,1.52-3.15,1.52-5Zm-9,9h50c.55,0,1,.45,1,1v5c0,.55-.45,1-1,1H15c-.55,0-1-.45-1-1v-5c0-.55.45-1,1-1h20Zm39.11,81.13c-.07.49-.49.87-.99.87H26.88c-.5,0-.93-.37-.99-.87l-4.24-69.07c-.04-.58.42-1.06,1-1.06h54.72c.58,0,1.03.49,1,1.06l-4.25,69.07Z"/>
  <path class="cls-1" d="m50,92.5c-1.1,0-2-.9-2-2V30.5c0-1.1.9-2,2-2s2,.9,2,2v60c0,1.1-.9,2-2,2Z"/>
  <path class="cls-1" d="m66.02,92.48s-.09,0-.14,0c-1.1-.04-1.97-.97-1.93-2.07l2.09-59.96c.04-1.1.96-1.97,2.07-1.93,1.1.04,1.97.96,1.93,2.07l-2.09,59.96c-.04,1.06-.89,1.89-1.93,1.93Z"/>
  <path class="cls-1" d="m33.98,92.48c-1.04-.04-1.89-.87-1.93-1.93l-2.09-59.96c-.04-1.1.83-2.03,1.93-2.07,1.11-.05,2.03.83,2.07,1.93l2.09,59.96c.04,1.1-.83,2.03-1.93,2.07-.05,0-.09,0-.14,0Z"/>
</svg>