<?xml version="1.0" encoding="UTF-8"?><svg id="Layer_1" xmlns="http://www.w3.org/2000/svg" xmlns:xlink="http://www.w3.org/1999/xlink" viewBox="0 0 100 100"><defs><style>.cls-1{fill:#c2b8b6;}</style><symbol id="Skull_Icon" viewBox="0 0 83.41 90"><g><path class="cls-1" d="m62,90H21.41c-1.1,0-2-.9-2-2v-12.17c0-3.86-2.64-6.21-6.3-9.46C7.58,61.45,0,54.71,0,38.71,0,16.64,17.93,0,41.71,0s41.71,16.64,41.71,38.71c0,13.81-6.99,20.73-12.6,26.29-3.8,3.76-6.81,6.74-6.81,10.84v12.17c0,1.1-.9,2-2,2Zm-38.59-4h36.59v-10.17c0-5.77,3.88-9.61,7.99-13.68,5.35-5.3,11.42-11.3,11.42-23.44,0-20.11-15.86-34.71-37.71-34.71S4,18.6,4,38.71c0,14.21,6.25,19.77,11.77,24.68,3.93,3.5,7.64,6.8,7.64,12.45v10.17Z"/><path class="cls-1" d="m24.06,58.61c-6.4,0-11.61-5.21-11.61-11.61s5.21-11.61,11.61-11.61,11.61,5.21,11.61,11.61-5.21,11.61-11.61,11.61Zm0-19.22c-4.2,0-7.61,3.41-7.61,7.61s3.41,7.61,7.61,7.61,7.61-3.42,7.61-7.61-3.42-7.61-7.61-7.61Z"/><path class="cls-1" d="m59.35,58.61c-6.4,0-11.61-5.21-11.61-11.61s5.21-11.61,11.61-11.61,11.61,5.21,11.61,11.61-5.21,11.61-11.61,11.61Zm0-19.22c-4.2,0-7.61,3.41-7.61,7.61s3.42,7.61,7.61,7.61,7.61-3.42,7.61-7.61-3.41-7.61-7.61-7.61Z"/><path class="cls-1" d="m41.71,90c-1.1,0-2-.9-2-2v-10.59c0-1.1.9-2,2-2s2,.9,2,2v10.59c0,1.1-.9,2-2,2Z"/><path class="cls-1" d="m31.12,90c-1.1,0-2-.9-2-2v-10.59c0-1.1.9-2,2-2s2,.9,2,2v10.59c0,1.1-.9,2-2,2Z"/><path class="cls-1" d="m52.29,90c-1.1,0-2-.9-2-2v-10.59c0-1.1.9-2,2-2s2,.9,2,2v10.59c0,1.1-.9,2-2,2Z"/></g></symbol></defs><use width="83.41" height="90" transform="translate(3.66) scale(1.11)" xlink:href="#Skull_Icon"/></svg>