<?xml version="1.0" encoding="UTF-8"?><svg id="Layer_1" xmlns="http://www.w3.org/2000/svg" xmlns:xlink="http://www.w3.org/1999/xlink" viewBox="0 0 100 100"><defs><style>.cls-1{fill:#c2b8b6;}</style><symbol id="Inventory_Icon" viewBox="0 0 94 71.85"><g><path class="cls-1" d="m80.23,0H13.77C6.18,0,0,6.18,0,13.77v51.08c0,3.86,3.14,7,7,7h80.01c3.86,0,7-3.14,7-7V13.77c0-7.59-6.17-13.77-13.77-13.77ZM4,13.77c0-5.39,4.38-9.77,9.77-9.77h66.46c5.38,0,9.77,4.38,9.77,9.77v5.62h-33.46v-2.69c0-1.1-.9-2-2-2h-15.09c-1.1,0-2,.9-2,2v2.69H4v-5.61Zm48.54,4.92v15.38h-11.09v-15.38h11.09Zm37.46,46.16c0,1.65-1.34,3-3,3H7c-1.65,0-3-1.34-3-3V23.38h33.46v12.69c0,1.1.9,2,2,2h15.09c1.1,0,2-.9,2-2v-12.69h33.46v41.47Z"/><path class="cls-1" d="m47,31.39c1.1,0,2-.9,2-2v-5.87c0-1.1-.9-2-2-2s-2,.9-2,2v5.87c0,1.1.9,2,2,2Z"/></g></symbol></defs><use width="94" height="71.85" transform="translate(0 11.78) scale(1.06)" xlink:href="#Inventory_Icon"/></svg>