<?xml version="1.0" encoding="UTF-8"?><svg id="Layer_1" xmlns="http://www.w3.org/2000/svg" viewBox="0 0 70 70"><defs><style>.cls-1{fill:#c2b8b6;}.cls-2{fill:#29120e;}</style></defs><rect class="cls-1" x="2" y="2" width="66" height="66" rx="9.67" ry="9.67"/><path class="cls-2" d="m58.33,4c4.23,0,7.67,3.44,7.67,7.67v46.67c0,4.23-3.44,7.67-7.67,7.67H11.67c-4.23,0-7.67-3.44-7.67-7.67V11.67c0-4.23,3.44-7.67,7.67-7.67h46.67m0-4H11.67C5.22,0,0,5.22,0,11.67v46.67c0,6.44,5.22,11.67,11.67,11.67h46.67c6.44,0,11.67-5.22,11.67-11.67V11.67c0-6.44-5.22-11.67-11.67-11.67h0Z"/></svg>