<?xml version="1.0" encoding="UTF-8"?>
<svg id="Layer_1" data-name="Layer 1" xmlns="http://www.w3.org/2000/svg" width="50" height="50" xmlns:xlink="http://www.w3.org/1999/xlink" viewBox="0 0 50 50">
  <defs>
    <style>
      .cls-1, .cls-2 {
        fill: #fff;
      }

      .cls-2 {
        opacity: .6;
      }
    </style>
    <symbol id="Checkmark_Inactive" viewBox="0 0 100 75.87">
      <path class="cls-2" d="m98.79,12.6l-11.39-11.39c-.81-.81-1.87-1.21-2.93-1.21s-2.12.4-2.93,1.21l-41.89,41.89-21.21-21.21c-.81-.81-1.87-1.21-2.93-1.21s-2.12.4-2.93,1.21L1.21,33.28c-1.62,1.62-1.62,4.24,0,5.85l21.21,21.21,14.31,14.31c.81.81,1.87,1.21,2.93,1.21s2.12-.4,2.93-1.21l14.31-14.31,41.89-41.89c1.62-1.62,1.62-4.24,0-5.85Z"/>
    </symbol>
  </defs>
  <use width="100" height="75.87" transform="translate(7.5 11.77) scale(.35)" xlink:href="#Checkmark_Inactive"/>
  <path class="cls-1" d="m40,.04H10C4.48.04,0,4.52,0,10.04v30c0,5.52,4.48,10,10,10h30c5.52,0,10-4.48,10-10V10.04C50,4.52,45.52.04,40,.04Zm2.08,18.18l-14.66,14.66-5.01,5.01c-.28.28-.65.42-1.02.42s-.74-.14-1.02-.42l-5.01-5.01-7.42-7.42c-.57-.57-.57-1.48,0-2.05l3.99-3.99c.28-.28.65-.42,1.02-.42s.74.14,1.02.42l7.42,7.42,14.66-14.66c.28-.28.65-.42,1.02-.42s.74.14,1.02.42l3.99,3.99c.57.57.57,1.48,0,2.05Z"/>
</svg>