<?xml version="1.0" encoding="UTF-8"?>
<svg id="Layer_1" data-name="Layer 1" xmlns="http://www.w3.org/2000/svg" width="50" height="50" xmlns:xlink="http://www.w3.org/1999/xlink" viewBox="0 0 50 50">
  <defs>
    <style>
      .cls-1 {
        fill: #fff;
      }

      .cls-2 {
        opacity: .6;
      }
    </style>
    <symbol id="Checkmark_Active" viewBox="0 0 100 75.87">
      <path class="cls-1" d="m98.79,12.6l-11.39-11.39c-.81-.81-1.87-1.21-2.93-1.21s-2.12.4-2.93,1.21l-41.89,41.89-21.21-21.21c-.81-.81-1.87-1.21-2.93-1.21s-2.12.4-2.93,1.21L1.21,33.28c-1.62,1.62-1.62,4.24,0,5.85l21.21,21.21,14.31,14.31c.81.81,1.87,1.21,2.93,1.21s2.12-.4,2.93-1.21l14.31-14.31,41.89-41.89c1.62-1.62,1.62-4.24,0-5.85Z"/>
    </symbol>
  </defs>
  <g class="cls-2">
    <rect class="cls-1" y=".04" width="50" height="50" rx="10" ry="10"/>
  </g>
  <use width="100" height="75.87" transform="translate(7.5 11.77) scale(.35)" xlink:href="#Checkmark_Active"/>
</svg>