<?xml version="1.0" encoding="UTF-8"?>
<svg id="Layer_1" data-name="Layer 1" xmlns="http://www.w3.org/2000/svg" xmlns:xlink="http://www.w3.org/1999/xlink" viewBox="0 0 50 50">
  <defs>
    <style>
      .cls-1 {
        fill: #c2b8b6;
      }

      .cls-2 {
        fill: #beb7b5;
      }

      .cls-3 {
        fill: #29120e;
      }
    </style>
    <symbol id="Inventory_Icon_Dark" viewBox="0 0 100 76.43">
      <g>
        <path class="cls-3" d="m85.36,0H14.65C6.57,0,0,6.57,0,14.65v54.34c0,4.1,3.34,7.44,7.44,7.44h85.12c4.1,0,7.44-3.34,7.44-7.44V14.64c0-8.08-6.57-14.64-14.64-14.64ZM4.26,14.65c0-5.73,4.66-10.4,10.4-10.4h70.7c5.73,0,10.39,4.66,10.39,10.39v5.98h-35.59v-2.87c0-1.17-.95-2.13-2.13-2.13h-16.05c-1.17,0-2.13.95-2.13,2.13v2.87H4.26v-5.97Zm51.64,5.23v16.37h-11.79v-16.37h11.79Zm39.85,49.11c0,1.76-1.43,3.19-3.19,3.19H7.44c-1.76,0-3.19-1.43-3.19-3.19V24.88h35.59v13.5c0,1.17.95,2.13,2.13,2.13h16.05c1.17,0,2.13-.95,2.13-2.13v-13.5h35.59v44.11Z"/>
        <path class="cls-3" d="m50,33.39c1.17,0,2.13-.95,2.13-2.13v-6.25c0-1.17-.95-2.13-2.13-2.13s-2.13.95-2.13,2.13v6.25c0,1.17.95,2.13,2.13,2.13Z"/>
      </g>
    </symbol>
    <symbol id="Inventory_Icon_Filled_2" data-name="Inventory_Icon_Filled 2" viewBox="0 0 100 76.43">
      <g>
        <polygon class="cls-3" points="96.87 9.43 88.57 2.43 11.91 2.43 2.74 9.43 2.74 73.6 96.87 73.6 96.87 9.43"/>
        <path class="cls-1" d="m85.36,0H14.65C6.57,0,0,6.57,0,14.65v54.34c0,4.1,3.34,7.44,7.44,7.44h85.12c4.1,0,7.44-3.34,7.44-7.44V14.64C100,6.57,93.43,0,85.36,0ZM4.26,14.65c0-5.73,4.66-10.4,10.4-10.4h70.7c5.73,0,10.39,4.66,10.39,10.39v5.98h-35.59v-2.87c0-1.17-.95-2.13-2.13-2.13h-16.05c-1.17,0-2.13.95-2.13,2.13v2.87H4.26v-5.97Zm51.64,5.23v16.37h-11.79v-16.37h11.79Zm39.85,49.11c0,1.76-1.43,3.19-3.19,3.19H7.44c-1.76,0-3.19-1.43-3.19-3.19V24.88h35.59v13.5c0,1.17.95,2.13,2.13,2.13h16.05c1.17,0,2.13-.95,2.13-2.13v-13.5h35.59v44.11Z"/>
        <path class="cls-1" d="m50,33.39c1.17,0,2.13-.95,2.13-2.13v-6.25c0-1.17-.95-2.13-2.13-2.13s-2.13.95-2.13,2.13v6.25c0,1.17.95,2.13,2.13,2.13Z"/>
        <path class="cls-3" d="m85.36,2c6.97,0,12.64,5.67,12.64,12.64v54.35c0,3-2.44,5.44-5.44,5.44H7.44c-3,0-5.44-2.44-5.44-5.44V14.65C2,7.68,7.68,2,14.65,2h70.7m0-2H14.65C6.57,0,0,6.57,0,14.65v54.34c0,4.1,3.34,7.44,7.44,7.44h85.12c4.1,0,7.44-3.34,7.44-7.44V14.64c0-8.08-6.57-14.64-14.64-14.64h0Z"/>
      </g>
    </symbol>
    <symbol id="Quest_Menu_Icon_Dark" viewBox="0 0 100 100">
      <path class="cls-3" d="m85.9,0h-47.87c-7.77,0-14.1,6.32-14.1,14.1v69.68H2.13c-1.17,0-2.13.95-2.13,2.13,0,7.77,6.32,14.1,14.1,14.1h47.87c7.77,0,14.1-6.32,14.1-14.1V16.22h21.81c1.17,0,2.13-.95,2.13-2.13,0-7.77-6.32-14.1-14.1-14.1ZM14.1,95.74c-4.7,0-8.63-3.31-9.61-7.71h43.55c.45,2.98,1.84,5.65,3.85,7.71H14.1Zm57.71-9.84c0,5.43-4.41,9.84-9.84,9.84s-9.84-4.41-9.84-9.84c0-1.17-.95-2.13-2.13-2.13h-21.81V14.1c0-5.43,4.41-9.84,9.84-9.84h37.8c-2.48,2.54-4.02,6.01-4.02,9.84v71.81Zm4.49-73.94c.97-4.41,4.91-7.71,9.61-7.71s8.63,3.31,9.61,7.71h-19.22Z"/>
    </symbol>
    <symbol id="Quest_Menu_Icon_Filled_2" data-name="Quest_Menu_Icon_Filled 2" viewBox="0 0 100 100">
      <g>
        <polygon class="cls-3" points="1.72 85.64 26.23 85.64 26.23 10.4 29.64 5.98 34.23 2.06 87.17 2.06 94.68 6.65 97.55 13.77 74.45 13.7 74.02 87.43 68.47 95.74 58.7 97.7 11.44 97.7 4.22 92.69 1.72 85.64"/>
        <path class="cls-1" d="m85.9,0h-47.87c-7.77,0-14.1,6.32-14.1,14.1v69.68H2.13c-1.17,0-2.13.95-2.13,2.13,0,7.77,6.32,14.1,14.1,14.1h47.87c7.77,0,14.1-6.32,14.1-14.1V16.22h21.81c1.17,0,2.13-.95,2.13-2.13,0-7.77-6.32-14.1-14.1-14.1ZM14.1,95.74c-4.7,0-8.63-3.31-9.61-7.71h43.55c.45,2.98,1.84,5.65,3.85,7.71H14.1Zm57.71-9.84c0,5.43-4.41,9.84-9.84,9.84s-9.84-4.41-9.84-9.84c0-1.17-.95-2.13-2.13-2.13h-21.81V14.1c0-5.43,4.41-9.84,9.84-9.84h37.8c-2.48,2.54-4.02,6.01-4.02,9.84v71.81Zm4.49-73.94c.97-4.41,4.91-7.71,9.61-7.71s8.63,3.31,9.61,7.71h-19.22Z"/>
        <path class="cls-3" d="m85.9,2c6.67,0,12.1,5.43,12.1,12.1,0,.07-.06.13-.13.13h-23.81v71.68c0,6.67-5.43,12.1-12.1,12.1H14.1c-6.67,0-12.1-5.43-12.1-12.1,0-.07.06-.13.13-.13h23.81V14.1c0-6.67,5.43-12.1,12.1-12.1h47.87m0-2h-47.87c-7.77,0-14.1,6.32-14.1,14.1v69.68H2.13c-1.18,0-2.13.95-2.13,2.13,0,7.77,6.32,14.1,14.1,14.1h47.87c7.77,0,14.1-6.32,14.1-14.1V16.22h21.81c1.18,0,2.13-.95,2.13-2.13,0-7.77-6.32-14.1-14.1-14.1h0Z"/>
      </g>
    </symbol>
  </defs>
  <g>
    <rect class="cls-2" x="1" y="1" width="48" height="48" rx="9" ry="9"/>
    <path class="cls-3" d="m40,2c4.41,0,8,3.59,8,8v30c0,4.41-3.59,8-8,8H10c-4.41,0-8-3.59-8-8V10C2,5.59,5.59,2,10,2h30m0-2H10C4.48,0,0,4.48,0,10v30c0,5.52,4.48,10,10,10h30c5.52,0,10-4.48,10-10V10c0-5.52-4.48-10-10-10h0Z"/>
  </g>
  <path class="cls-2" d="m3.4,38.33V12.61C3.4,7.52,7.52,3.4,12.61,3.4h25.72c4.1,0,6.16,4.96,3.26,7.86l-30.32,30.32c-2.9,2.9-7.86.85-7.86-3.26Z"/>
  <use width="100" height="76.43" transform="translate(17.5 23.98) scale(.25)" xlink:href="#Inventory_Icon_Dark"/>
  <use width="100" height="100" transform="translate(5.47 5.5) scale(.25)" xlink:href="#Quest_Menu_Icon_Dark"/>
  <use width="100" height="100" transform="translate(5.47 5.5) scale(.25)" xlink:href="#Quest_Menu_Icon_Filled_2"/>
  <use width="100" height="76.43" transform="translate(17.5 23.98) scale(.25)" xlink:href="#Inventory_Icon_Filled_2"/>
  <g>
    <path class="cls-3" d="m10,43c-.8,0-1.55-.31-2.12-.88s-.88-1.32-.88-2.12.31-1.55.88-2.12L37.88,7.88c.57-.57,1.32-.88,2.12-.88s1.55.31,2.12.88.88,1.32.88,2.12-.31,1.55-.88,2.12l-30,30c-.57.57-1.32.88-2.12.88Z"/>
    <path class="cls-2" d="m40,9c.26,0,.51.1.71.29.39.39.39,1.02,0,1.41l-30,30c-.2.2-.45.29-.71.29s-.51-.1-.71-.29c-.39-.39-.39-1.02,0-1.41l30-30c.2-.2.45-.29.71-.29m0-4c-1.34,0-2.59.52-3.54,1.46L6.46,36.46c-1.95,1.95-1.95,5.12,0,7.07.94.94,2.2,1.46,3.54,1.46s2.59-.52,3.54-1.46l30-30c1.95-1.95,1.95-5.12,0-7.07-.94-.94-2.2-1.46-3.54-1.46h0Z"/>
  </g>
</svg>