<?xml version="1.0" encoding="UTF-8"?>
<svg id="Layer_1" data-name="Layer 1" xmlns="http://www.w3.org/2000/svg" xmlns:xlink="http://www.w3.org/1999/xlink" viewBox="0 0 50 50">
  <defs>
    <style>
      .cls-1 {
        fill: #beb7b5;
      }

      .cls-2 {
        fill: #29120e;
      }
    </style>
    <symbol id="Save_Icon_Hover_6" data-name="Save_Icon_Hover 6" viewBox="0 0 90 100">
      <g>
        <polygon class="cls-2" points="87.62 97.47 2.68 97.47 2.68 2.66 65.83 2.66 87.62 21.21 87.62 97.47"/>
        <path class="cls-1" d="m88.66,18.81L68.64,1.01c-.73-.65-1.68-1.01-2.66-1.01H4C1.79,0,0,1.79,0,4v92c0,2.21,1.79,4,4,4h82c2.21,0,4-1.79,4-4V21.8c0-1.14-.49-2.23-1.34-2.99Zm-26.16-13.81v25H27.5V5h35ZM20,95v-40h50v40H20Zm65,0h-10v-41c0-2.21-1.79-4-4-4H19c-2.21,0-4,1.79-4,4v41H5V5h17.5v26c0,2.21,1.79,4,4,4h37c2.21,0,4-1.79,4-4V6.69l17.5,15.56v72.75Z"/>
        <path class="cls-1" d="m55,26c1.38,0,2.5-1.12,2.5-2.5v-12c0-1.38-1.12-2.5-2.5-2.5s-2.5,1.12-2.5,2.5v12c0,1.38,1.12,2.5,2.5,2.5Z"/>
        <path class="cls-1" d="m62.5,59.95H27.5c-1.38,0-2.5,1.12-2.5,2.5s1.12,2.5,2.5,2.5h35c1.38,0,2.5-1.12,2.5-2.5s-1.12-2.5-2.5-2.5Z"/>
        <path class="cls-1" d="m62.5,72.95H27.5c-1.38,0-2.5,1.12-2.5,2.5s1.12,2.5,2.5,2.5h35c1.38,0,2.5-1.12,2.5-2.5s-1.12-2.5-2.5-2.5Z"/>
        <path class="cls-1" d="m62.5,85.95H27.5c-1.38,0-2.5,1.12-2.5,2.5s1.12,2.5,2.5,2.5h35c1.38,0,2.5-1.12,2.5-2.5s-1.12-2.5-2.5-2.5Z"/>
        <path class="cls-2" d="m65.98,2c.49,0,.96.18,1.33.51l20.02,17.8c.43.38.67.92.67,1.49v74.2c0,1.1-.9,2-2,2H4c-1.1,0-2-.9-2-2V4c0-1.1.9-2,2-2h61.98m0-2H4C1.79,0,0,1.79,0,4v92c0,2.21,1.79,4,4,4h82c2.21,0,4-1.79,4-4V21.8c0-1.14-.49-2.23-1.34-2.99L68.64,1.01c-.73-.65-1.68-1.01-2.66-1.01h0Z"/>
      </g>
    </symbol>
  </defs>
  <g id="Inventory_Button">
    <g>
      <rect class="cls-1" x="1" y="1" width="48" height="48" rx="9" ry="9"/>
      <path class="cls-2" d="m40,2c4.41,0,8,3.59,8,8v30c0,4.41-3.59,8-8,8H10c-4.41,0-8-3.59-8-8V10C2,5.59,5.59,2,10,2h30m0-2H10C4.48,0,0,4.48,0,10v30c0,5.52,4.48,10,10,10h30c5.52,0,10-4.48,10-10V10c0-5.52-4.48-10-10-10h0Z"/>
    </g>
  </g>
  <use width="90" height="100" transform="translate(11.5 10) scale(.3)" xlink:href="#Save_Icon_Hover_6"/>
</svg>