<?xml version="1.0" encoding="UTF-8"?>
<svg id="Layer_1" data-name="Layer 1" xmlns="http://www.w3.org/2000/svg" xmlns:xlink="http://www.w3.org/1999/xlink" viewBox="0 0 100 100">
  <defs>
    <style>
      .cls-1 {
        fill: #beb7b5;
      }

      .cls-2 {
        fill: #29120e;
      }
    </style>
    <symbol id="Q_Icon" viewBox="0 0 100.03 100.03">
      <g>
        <circle class="cls-2" cx="50.02" cy="50.02" r="50.02"/>
        <path class="cls-1" d="m66.4,69.58c-.33,0-.82.21-1.53.67-1.6,1.06-3.06,1.6-4.35,1.6-.73,0-1.79-.26-3.15-.78-1.99-.75-4.05-1.13-6.11-1.13-1.03,0-2.29.13-3.75.39l2.97-2.23c4.62-.09,8.75-2.18,12.29-6.19,3.55-4.03,5.35-9.24,5.35-15.47s-1.83-11.57-5.44-15.59c-3.62-4.03-7.87-6.07-12.63-6.07s-9.01,2.04-12.63,6.07c-3.61,4.02-5.44,9.27-5.44,15.59,0,5.41,1.42,10.11,4.21,13.97,2.67,3.69,5.9,6.09,9.6,7.13l-6.08,4.39c-.6.42-.91.91-.91,1.46s.17.97.49,1.29c.33.33.72.49,1.19.49.23,0,.58-.06,1.08-.18,1.4-.39,3.28-.79,5.61-1.18,1.65-.27,3.05-.41,4.17-.41,1.57,0,3.21.31,4.89.93,1.76.64,3.11.96,4.12.96,1.28,0,2.61-.3,3.93-.89,1.77-.77,2.88-1.42,3.39-2.01.27-.3.41-.66.41-1.07,0-.51-.16-.93-.47-1.24-.31-.31-.72-.47-1.2-.47Zm-16.37-41.39c4.28,0,7.82,1.88,10.52,5.57,2.72,3.72,4.1,7.98,4.1,12.67s-1.38,8.97-4.1,12.68c-2.7,3.69-6.24,5.56-10.52,5.56-3.74,0-7.15-1.71-10.14-5.09-3-3.38-4.52-7.81-4.52-13.15,0-5.02,1.45-9.37,4.31-12.92,2.85-3.53,6.33-5.32,10.34-5.32Z"/>
      </g>
    </symbol>
  </defs>
  <use width="100.03" height="100.03" transform="translate(-.03 -.02)" xlink:href="#Q_Icon"/>
</svg>