<?xml version="1.0" encoding="UTF-8"?>
<svg id="Layer_1" data-name="Layer 1" xmlns="http://www.w3.org/2000/svg" xmlns:xlink="http://www.w3.org/1999/xlink" viewBox="0 0 100 100">
  <defs>
    <style>
      .cls-1 {
        fill: #a343ed;
      }
    </style>
    <symbol id="Skull_Icon_Dark" viewBox="0 0 92.68 100">
      <g>
        <path class="cls-1" d="m68.89,100H23.79c-1.23,0-2.22-1-2.22-2.22v-13.52c0-4.29-2.94-6.9-7-10.51-6.15-5.47-14.57-12.96-14.57-30.74C0,18.49,19.92,0,46.34,0s46.34,18.49,46.34,43.01c0,15.35-7.77,23.03-14,29.21-4.23,4.18-7.56,7.49-7.56,12.04v13.52c0,1.23-1,2.22-2.22,2.22Zm-42.88-4.44h40.65v-11.3c0-6.41,4.31-10.68,8.88-15.2,5.95-5.89,12.69-12.56,12.69-26.05,0-22.34-17.62-38.56-41.9-38.56S4.44,20.66,4.44,43.01c0,15.78,6.95,21.97,13.08,27.42,4.37,3.88,8.49,7.55,8.49,13.83v11.3Z"/>
        <path class="cls-1" d="m26.73,65.12c-7.11,0-12.9-5.79-12.9-12.9s5.79-12.9,12.9-12.9,12.9,5.79,12.9,12.9-5.79,12.9-12.9,12.9Zm0-21.36c-4.66,0-8.46,3.79-8.46,8.46s3.79,8.46,8.46,8.46,8.46-3.79,8.46-8.46-3.79-8.46-8.46-8.46Z"/>
        <path class="cls-1" d="m65.95,65.12c-7.11,0-12.9-5.79-12.9-12.9s5.79-12.9,12.9-12.9,12.9,5.79,12.9,12.9-5.79,12.9-12.9,12.9Zm0-21.36c-4.66,0-8.46,3.79-8.46,8.46s3.79,8.46,8.46,8.46,8.46-3.79,8.46-8.46-3.79-8.46-8.46-8.46Z"/>
        <path class="cls-1" d="m46.34,100c-1.23,0-2.22-1-2.22-2.22v-11.76c0-1.23,1-2.22,2.22-2.22s2.22,1,2.22,2.22v11.76c0,1.23-1,2.22-2.22,2.22Z"/>
        <path class="cls-1" d="m34.58,100c-1.23,0-2.22-1-2.22-2.22v-11.76c0-1.23,1-2.22,2.22-2.22s2.22,1,2.22,2.22v11.76c0,1.23-1,2.22-2.22,2.22Z"/>
        <path class="cls-1" d="m58.1,100c-1.23,0-2.22-1-2.22-2.22v-11.76c0-1.23,1-2.22,2.22-2.22s2.22,1,2.22,2.22v11.76c0,1.23-1,2.22-2.22,2.22Z"/>
      </g>
    </symbol>
  </defs>
  <use width="92.68" height="100" transform="translate(3.66)" xlink:href="#Skull_Icon_Dark"/>
</svg>