<?xml version="1.0" encoding="UTF-8"?>
<svg id="Layer_1" data-name="Layer 1" xmlns="http://www.w3.org/2000/svg" xmlns:xlink="http://www.w3.org/1999/xlink" viewBox="0 0 100 100">
  <defs>
    <style>
      .cls-1 {
        fill: #29120e;
      }
    </style>
    <symbol id="Inventory_Icon_Dark" viewBox="0 0 100 76.43">
      <g>
        <path class="cls-1" d="m85.36,0H14.65C6.57,0,0,6.57,0,14.65v54.34c0,4.1,3.34,7.44,7.44,7.44h85.12c4.1,0,7.44-3.34,7.44-7.44V14.64c0-8.08-6.57-14.64-14.64-14.64ZM4.26,14.65c0-5.73,4.66-10.4,10.4-10.4h70.7c5.73,0,10.39,4.66,10.39,10.39v5.98h-35.59v-2.87c0-1.17-.95-2.13-2.13-2.13h-16.05c-1.17,0-2.13.95-2.13,2.13v2.87H4.26v-5.97Zm51.64,5.23v16.37h-11.79v-16.37h11.79Zm39.85,49.11c0,1.76-1.43,3.19-3.19,3.19H7.44c-1.76,0-3.19-1.43-3.19-3.19V24.88h35.59v13.5c0,1.17.95,2.13,2.13,2.13h16.05c1.17,0,2.13-.95,2.13-2.13v-13.5h35.59v44.11Z"/>
        <path class="cls-1" d="m50,33.39c1.17,0,2.13-.95,2.13-2.13v-6.25c0-1.17-.95-2.13-2.13-2.13s-2.13.95-2.13,2.13v6.25c0,1.17.95,2.13,2.13,2.13Z"/>
      </g>
    </symbol>
  </defs>
  <use width="100" height="76.43" transform="translate(0 11.78)" xlink:href="#Inventory_Icon_Dark"/>
</svg>