<?xml version="1.0" encoding="UTF-8"?>
<svg id="Layer_1" data-name="Layer 1" xmlns="http://www.w3.org/2000/svg" xmlns:xlink="http://www.w3.org/1999/xlink" viewBox="0 0 100 100">
  <defs>
    <style>
      .cls-1 {
        fill: #29120e;
      }
    </style>
    <symbol id="Safe_Icon_Dark" viewBox="0 0 90 100">
      <g>
        <path class="cls-1" d="m88.66,18.81L68.64,1.01c-.73-.65-1.68-1.01-2.66-1.01H4C1.79,0,0,1.79,0,4v92c0,2.21,1.79,4,4,4h82c2.21,0,4-1.79,4-4V21.8c0-1.14-.49-2.23-1.34-2.99Zm-26.16-13.81v25H27.5V5h35ZM20,95v-40h50v40H20Zm65,0h-10v-41c0-2.21-1.79-4-4-4H19c-2.21,0-4,1.79-4,4v41H5V5h17.5v26c0,2.21,1.79,4,4,4h37c2.21,0,4-1.79,4-4V6.69l17.5,15.56v72.75Z"/>
        <path class="cls-1" d="m55,26c1.38,0,2.5-1.12,2.5-2.5v-12c0-1.38-1.12-2.5-2.5-2.5s-2.5,1.12-2.5,2.5v12c0,1.38,1.12,2.5,2.5,2.5Z"/>
        <path class="cls-1" d="m62.5,59.95H27.5c-1.38,0-2.5,1.12-2.5,2.5s1.12,2.5,2.5,2.5h35c1.38,0,2.5-1.12,2.5-2.5s-1.12-2.5-2.5-2.5Z"/>
        <path class="cls-1" d="m62.5,72.95H27.5c-1.38,0-2.5,1.12-2.5,2.5s1.12,2.5,2.5,2.5h35c1.38,0,2.5-1.12,2.5-2.5s-1.12-2.5-2.5-2.5Z"/>
        <path class="cls-1" d="m62.5,85.95H27.5c-1.38,0-2.5,1.12-2.5,2.5s1.12,2.5,2.5,2.5h35c1.38,0,2.5-1.12,2.5-2.5s-1.12-2.5-2.5-2.5Z"/>
      </g>
    </symbol>
  </defs>
  <use width="90" height="100" transform="translate(5)" xlink:href="#Safe_Icon_Dark"/>
</svg>