<?xml version="1.0" encoding="UTF-8"?>
<svg id="Layer_1" data-name="Layer 1" xmlns="http://www.w3.org/2000/svg" xmlns:xlink="http://www.w3.org/1999/xlink" viewBox="0 0 100 100">
  <defs>
    <style>
      .cls-1 {
        fill: #beb7b5;
      }

      .cls-2 {
        fill: #29120e;
      }
    </style>
    <symbol id="Pause_Icon_Filled" viewBox="0 0 84 100">
      <g>
        <rect class="cls-2" x="57.57" y="3.53" width="22.85" height="92.94"/>
        <path class="cls-1" d="m79,5v90h-20V5h20m0-5h-20c-2.76,0-5,2.24-5,5v90c0,2.76,2.24,5,5,5h20c2.76,0,5-2.24,5-5V5c0-2.76-2.24-5-5-5h0Z"/>
        <rect class="cls-2" x="3.6" y="3.23" width="22.85" height="92.94"/>
        <path class="cls-1" d="m25,5v90H5V5h20m0-5H5C2.24,0,0,2.24,0,5v90c0,2.76,2.24,5,5,5h20c2.76,0,5-2.24,5-5V5c0-2.76-2.24-5-5-5h0Z"/>
        <path class="cls-2" d="m79,2c1.65,0,3,1.35,3,3v90c0,1.65-1.35,3-3,3h-20c-1.65,0-3-1.35-3-3V5c0-1.65,1.35-3,3-3h20m0-2h-20c-2.76,0-5,2.24-5,5v90c0,2.76,2.24,5,5,5h20c2.76,0,5-2.24,5-5V5c0-2.76-2.24-5-5-5h0Z"/>
        <path class="cls-2" d="m25,2c1.65,0,3,1.35,3,3v90c0,1.65-1.35,3-3,3H5c-1.65,0-3-1.35-3-3V5c0-1.65,1.35-3,3-3h20m0-2H5C2.24,0,0,2.24,0,5v90c0,2.76,2.24,5,5,5h20c2.76,0,5-2.24,5-5V5c0-2.76-2.24-5-5-5h0Z"/>
      </g>
    </symbol>
  </defs>
  <use width="84" height="100" transform="translate(8)" xlink:href="#Pause_Icon_Filled"/>
</svg>