<?xml version="1.0" encoding="UTF-8"?>
<svg id="Layer_1" data-name="Layer 1" xmlns="http://www.w3.org/2000/svg" xmlns:xlink="http://www.w3.org/1999/xlink" viewBox="0 0 100 100">
  <defs>
    <style>
      .cls-1 {
        fill: #c2b8b6;
      }
    </style>
    <symbol id="Hearth_Icon" viewBox="0 0 100 92.12">
      <g>
        <path class="cls-1" d="m86.65,31.84c-1.25,0-2.26-1.01-2.26-2.26,0-8.08-6.58-14.66-14.66-14.66-1.25,0-2.26-1.01-2.26-2.26s1.01-2.26,2.26-2.26c10.57,0,19.17,8.6,19.17,19.17,0,1.25-1.01,2.26-2.26,2.26Z"/>
        <path class="cls-1" d="m99.92,28.19c-1.06-14.65-12.73-26.63-27.35-28.04-8.29-.8-16.33,1.73-22.56,6.97C43.76,1.87,35.72-.66,27.42.15,12.8,1.56,1.14,13.55.08,28.2c-.62,8.64,2.37,16.95,8.26,23.17.06.08.12.15.19.22l39.87,39.87c.44.44,1.02.66,1.59.66s1.15-.22,1.59-.66l39.87-39.87c.07-.07.13-.14.19-.22,5.9-6.23,8.89-14.54,8.26-23.19Zm-11.68,20.24s-.09.1-.13.15l-38.11,38.11L11.9,48.57c-.04-.05-.08-.1-.13-.15-5.37-5.58-7.97-13.17-7.08-21C6.03,15.56,15.58,6.02,27.44,4.68c7.82-.88,15.41,1.72,20.98,7.09.29.28.65.47,1.04.56.16.04.32.06.49.07.57.03,1.18-.21,1.62-.63,5.58-5.37,13.16-7.97,20.98-7.09,11.87,1.34,21.41,10.88,22.76,22.75.89,7.82-1.71,15.42-7.08,21Z"/>
      </g>
    </symbol>
  </defs>
  <use width="100" height="92.12" transform="translate(0 3.94)" xlink:href="#Hearth_Icon"/>
</svg>