<?xml version="1.0" encoding="UTF-8"?>
<svg id="Layer_1" data-name="Layer 1" xmlns="http://www.w3.org/2000/svg" xmlns:xlink="http://www.w3.org/1999/xlink" viewBox="0 0 100 100">
  <defs>
    <style>
      .cls-1 {
        fill: #beb7b5;
      }

      .cls-2 {
        fill: #29120e;
      }
    </style>
    <symbol id="E_Icon" viewBox="0 0 100 100">
      <g>
        <circle class="cls-2" cx="50" cy="50" r="50"/>
        <path class="cls-1" d="m68.65,57.91c-.34-.39-.8-.58-1.36-.58s-1.02.2-1.36.58c-.34.38-.5.98-.5,1.82v9.29h-24.35v-18h11.08v3.4c0,.84.17,1.44.53,1.82.36.38.82.58,1.38.58s.98-.2,1.34-.58c.35-.38.53-.98.53-1.82v-10.54c0-.84-.17-1.44-.53-1.82-.36-.38-.81-.58-1.34-.58s-1.02.2-1.38.58c-.35.38-.53.98-.53,1.82v3.4h-11.08v-16.31h22.65v7.63c0,.84.17,1.43.5,1.82.34.39.8.58,1.36.58s1.02-.2,1.36-.58c.34-.38.5-.98.5-1.82v-11.37h-34.21c-.84,0-1.43.17-1.82.5-.39.34-.58.8-.58,1.36s.2,1.02.58,1.36c.38.34.98.5,1.82.5h4.1v38.04h-4.1c-.84,0-1.43.17-1.82.5-.39.34-.58.8-.58,1.36s.2.98.58,1.34.98.53,1.82.53h35.9v-13.02c0-.84-.17-1.44-.5-1.82Z"/>
      </g>
    </symbol>
  </defs>
  <use width="100" height="100" xlink:href="#E_Icon"/>
</svg>