<?xml version="1.0" encoding="UTF-8"?>
<svg id="Layer_1" data-name="Layer 1" xmlns="http://www.w3.org/2000/svg" viewBox="0 0 100 100">
  <defs>
    <style>
      .cls-1 {
        fill: #beb7b5;
      }

      .cls-2 {
        fill: #29120e;
      }
    </style>
  </defs>
  <polygon class="cls-2" points="92.3 50 9.52 2.21 9.52 97.79 92.3 50"/>
  <path class="cls-1" d="m11.14,5.26l76.97,44.44L11.14,94.14V5.26m-.75-5.56c-2.22,0-4.25,1.77-4.25,4.25v91.5c0,2.48,2.03,4.25,4.25,4.25.71,0,1.43-.18,2.12-.57l79.24-45.75c2.83-1.63,2.83-5.72,0-7.35L12.5.28c-.68-.39-1.41-.57-2.12-.57h0Z"/>
  <path class="cls-2" d="m10.39,2c.39,0,.76.1,1.12.31l79.24,45.75c1.01.58,1.12,1.55,1.12,1.94s-.11,1.36-1.12,1.94L11.5,97.69c-.35.2-.73.31-1.12.31-1.08,0-2.25-.86-2.25-2.25V4.25c0-1.39,1.17-2.25,2.25-2.25m0-2c-2.22,0-4.25,1.77-4.25,4.25v91.5c0,2.48,2.03,4.25,4.25,4.25.71,0,1.43-.18,2.12-.57l79.24-45.75c2.83-1.63,2.83-5.72,0-7.35L12.5.57c-.68-.39-1.41-.57-2.12-.57h0Z"/>
</svg>