<?xml version="1.0" encoding="UTF-8"?>
<svg id="Layer_1" data-name="Layer 1" xmlns="http://www.w3.org/2000/svg" xmlns:xlink="http://www.w3.org/1999/xlink" viewBox="0 0 100 100">
  <defs>
    <style>
      .cls-1 {
        fill: #bfb8b6;
      }
    </style>
    <symbol id="Egg_Icon" viewBox="0 0 80.38 100">
      <g>
        <path class="cls-1" d="m40.19,100C18.03,100,0,81.97,0,59.81,0,39.34,16.97,0,40.19,0s40.19,39.34,40.19,59.81c0,22.16-18.03,40.19-40.19,40.19Zm0-95.74C21.05,4.26,4.26,38.88,4.26,59.81c0,19.81,16.12,35.93,35.93,35.93s35.93-16.12,35.93-35.93c0-20.93-16.79-55.56-35.93-55.56Z"/>
        <path class="cls-1" d="m55.79,29.2c-.7,0-1.38-.37-1.75-1.02-3.99-7.11-9.04-11.18-13.85-11.18-1.1,0-2-.9-2-2s.9-2,2-2c8.63,0,14.57,8.29,17.34,13.22.54.96.2,2.18-.77,2.72-.31.17-.65.26-.98.26Z"/>
      </g>
    </symbol>
  </defs>
  <use width="80.38" height="100" transform="translate(9.81)" xlink:href="#Egg_Icon"/>
</svg>