<?xml version="1.0" encoding="UTF-8"?>
<svg id="Layer_1" data-name="Layer 1" xmlns="http://www.w3.org/2000/svg" xmlns:xlink="http://www.w3.org/1999/xlink" viewBox="0 0 100 100">
  <defs>
    <style>
      .cls-1 {
        fill: #bfb8b6;
      }

      .cls-2 {
        fill: #29120e;
      }
    </style>
    <symbol id="Cross_Icon" viewBox="0 0 100 100">
      <g>
        <polygon class="cls-2" points="98.49 79.96 80.02 98.43 1.51 19.92 19.98 1.45 98.49 79.96"/>
        <polygon class="cls-2" points="19.91 98.49 1.45 80.02 79.96 1.51 98.43 19.98 19.91 98.49"/>
        <path class="cls-1" d="m79.77,100c-1.72,0-3.45-.66-4.76-1.97l-25.01-25.01-25.01,25.01c-2.62,2.63-6.9,2.63-9.52,0l-13.5-13.5c-2.63-2.63-2.63-6.9,0-9.52l25.01-25.01L1.97,24.99c-2.63-2.63-2.63-6.9,0-9.52L15.47,1.97c2.62-2.62,6.9-2.63,9.52,0l25.02,25.02L75.01,1.97c2.62-2.62,6.9-2.62,9.52,0l13.5,13.5c2.63,2.63,2.63,6.9,0,9.52l-25,25,25,25.01c2.63,2.63,2.63,6.9,0,9.52l-13.5,13.5c-1.31,1.31-3.04,1.97-4.76,1.97Zm-29.77-33.33l28.18,28.18c.87.87,2.3.87,3.17,0l13.5-13.5c.87-.87.87-2.3,0-3.17l-28.17-28.2,28.17-28.17c.87-.87.87-2.3,0-3.17l-13.5-13.5c-.87-.87-2.3-.87-3.17,0l-28.15,28.22L21.82,5.14c-.87-.87-2.3-.87-3.17,0l-13.5,13.5c-.87.87-.87,2.3,0,3.17l28.25,28.12-28.25,28.25c-.87.87-.87,2.3,0,3.17l13.5,13.5c.87.87,2.3.87,3.17,0l28.18-28.18Z"/>
        <path class="cls-2" d="m79.77,2c1.27,0,2.46.49,3.35,1.38l13.5,13.5c.89.89,1.38,2.08,1.38,3.35s-.49,2.46-1.38,3.35l-25,25-1.41,1.41,1.41,1.41,25,25.01c1.85,1.85,1.85,4.85,0,6.69l-13.5,13.5c-.89.89-2.08,1.38-3.35,1.38s-2.46-.49-3.35-1.38l-25.01-25.01-1.41-1.41-1.41,1.41-25.01,25.01c-.89.89-2.08,1.38-3.35,1.38s-2.46-.49-3.35-1.38l-13.5-13.5c-1.85-1.85-1.85-4.85,0-6.69l25.01-25.01,1.41-1.41-1.41-1.41L3.38,23.58c-.89-.89-1.38-2.08-1.38-3.35s.49-2.46,1.38-3.35L16.88,3.38c.89-.89,2.08-1.38,3.35-1.38s2.46.49,3.35,1.38l25.02,25.02,1.41,1.41,1.41-1.42L76.42,3.38c.89-.89,2.08-1.38,3.35-1.38m0-2c-1.72,0-3.45.66-4.76,1.97l-25,25.02L24.99,1.97C23.68.66,21.95,0,20.23,0s-3.45.66-4.76,1.97L1.97,15.47c-2.63,2.63-2.63,6.9,0,9.52l25.01,25.01L1.97,75.01c-2.63,2.63-2.63,6.9,0,9.52l13.5,13.5c1.31,1.31,3.04,1.97,4.76,1.97s3.45-.66,4.76-1.97l25.01-25.01,25.01,25.01c1.31,1.31,3.04,1.97,4.76,1.97s3.45-.66,4.76-1.97l13.5-13.5c2.63-2.63,2.63-6.9,0-9.52l-25-25.01,25-25c2.63-2.63,2.63-6.9,0-9.52l-13.5-13.5c-1.31-1.31-3.04-1.97-4.76-1.97h0Z"/>
      </g>
    </symbol>
  </defs>
  <use width="100" height="100" transform="translate(0 .06)" xlink:href="#Cross_Icon"/>
</svg>