<?xml version="1.0" encoding="UTF-8"?>
<svg id="Layer_1" data-name="Layer 1" xmlns="http://www.w3.org/2000/svg" xmlns:xlink="http://www.w3.org/1999/xlink" viewBox="0 0 100 100">
  <defs>
    <style>
      .cls-1 {
        fill: #beb7b5;
      }

      .cls-2 {
        fill: #29120e;
      }
    </style>
    <symbol id="I_Icon" viewBox="0 0 100 100">
      <g>
        <circle class="cls-2" cx="50" cy="50" r="50"/>
        <path class="cls-1" d="m62.69,69.02h-10.83V30.98h10.83c.84,0,1.44-.17,1.82-.5.39-.34.58-.8.58-1.36s-.2-1.02-.58-1.36c-.38-.34-.98-.5-1.82-.5h-25.38c-.84,0-1.43.17-1.82.5-.39.34-.58.8-.58,1.36s.2,1.02.58,1.36c.38.34.98.51,1.82.51h10.83v38.04h-10.83c-.84,0-1.43.17-1.82.5-.39.34-.58.8-.58,1.36s.2.98.58,1.34c.38.35.98.53,1.82.53h25.38c.84,0,1.44-.17,1.82-.53.39-.35.58-.81.58-1.34,0-.56-.2-1.02-.58-1.36-.38-.34-.98-.5-1.82-.5Z"/>
      </g>
    </symbol>
  </defs>
  <use width="100" height="100" xlink:href="#I_Icon"/>
</svg>