<?xml version="1.0" encoding="UTF-8"?>
<svg id="Layer_1" data-name="Layer 1" xmlns="http://www.w3.org/2000/svg" xmlns:xlink="http://www.w3.org/1999/xlink" viewBox="0 0 100 100">
  <defs>
    <style>
      .cls-1 {
        fill: #beb7b5;
      }

      .cls-2 {
        fill: #29120e;
      }
    </style>
    <symbol id="Check_Mark_Icon" viewBox="0 0 100 100">
      <g>
        <circle class="cls-2" cx="50" cy="50" r="50"/>
        <path class="cls-1" d="m75.58,25.85s.07.02.08.03l9.11,9.11s.03.03.03.08-.02.07-.03.08l-33.51,33.51-11.45,11.45s-.03.03-.08.03-.07-.02-.08-.03l-11.45-11.45-16.97-16.97s-.03-.03-.03-.08.02-.07.03-.08l9.11-9.11s.03-.03.08-.03.07.02.08.03l16.97,16.97,2.26,2.26,2.26-2.26,33.51-33.51s.03-.03.08-.03m0-3.2c-.85,0-1.69.32-2.34.97l-33.51,33.51-16.97-16.97c-.65-.65-1.49-.97-2.34-.97s-1.69.32-2.34.97l-9.11,9.11c-1.29,1.29-1.29,3.39,0,4.68l16.97,16.97,11.45,11.45c.65.65,1.49.97,2.34.97s1.69-.32,2.34-.97l11.45-11.45,33.51-33.51c1.29-1.29,1.29-3.39,0-4.68l-9.11-9.11c-.65-.65-1.49-.97-2.34-.97h0Z"/>
      </g>
    </symbol>
  </defs>
  <use width="100" height="100" xlink:href="#Check_Mark_Icon"/>
</svg>