<?xml version="1.0" encoding="UTF-8"?>
<svg id="Layer_1" data-name="Layer 1" xmlns="http://www.w3.org/2000/svg" xmlns:xlink="http://www.w3.org/1999/xlink" viewBox="0 0 100 100">
  <defs>
    <style>
      .cls-1 {
        fill: #c2b8b6;
      }
    </style>
    <symbol id="Sword_Icon" viewBox="0 0 100 100">
      <path class="cls-1" d="m86.98,43.73l-6.39-6.39h.01s-4.03-4.04-4.03-4.04l13.15-13.15c2.65.05,5.31-.92,7.33-2.94,3.93-3.93,3.93-10.33,0-14.26s-10.33-3.93-14.26,0c-2.02,2.02-2.99,4.68-2.94,7.33l-13.15,13.15-4.03-4.03h-.01s-6.39-6.38-6.39-6.38c-1.51-1.51-3.97-1.51-5.48,0l-3.29,3.29c-1.51,1.51-1.51,3.97,0,5.48l6.35,6.35,1.88,1.88L6.3,79.44c-.93.93-1.64,2.08-2.06,3.33L.2,94.89c-.47,1.4-.11,2.92.94,3.97s2.57,1.4,3.97.94l12.12-4.04c1.25-.42,2.4-1.13,3.33-2.06l49.42-49.42,1.79,1.79,6.44,6.44c1.51,1.51,3.97,1.51,5.48,0l3.29-3.29c1.51-1.51,1.51-3.97,0-5.48Zm6.78-37.49c2.12,2.12,2.12,5.56,0,7.68s-5.56,2.12-7.68,0-2.12-5.56,0-7.68,5.56-2.12,7.68,0Zm-13.05,9.76l3.29,3.29-10.71,10.71-3.29-3.29,10.71-10.71ZM17.27,90.41c-.42.42-.95.75-1.52.94l-10.65,3.55,3.55-10.65c.19-.57.52-1.09.94-1.52l49.42-49.42,7.68,7.68-49.42,49.42Zm63.68-41.74l-5.89-5.89-2.33-2.33-13.16-13.16-2.43-2.43-5.8-5.8,2.19-2.19,10.42,10.42s.09.07.13.1l8.54,8.54s.06.09.1.13l10.42,10.42-2.19,2.19Z"/>
    </symbol>
  </defs>
  <use width="100" height="100" xlink:href="#Sword_Icon"/>
</svg>