<?xml version="1.0" encoding="UTF-8"?><svg id="Layer_1" xmlns="http://www.w3.org/2000/svg" xmlns:xlink="http://www.w3.org/1999/xlink" viewBox="0 0 100 100"><defs><style>.cls-1{fill:#bfb8b6;}</style><symbol id="Egg_Icon" viewBox="0 0 75.55 94"><g><path class="cls-1" d="m37.78,94C16.95,94,0,77.05,0,56.22,0,36.98,15.95,0,37.78,0s37.78,36.98,37.78,56.22c0,20.83-16.95,37.78-37.78,37.78Zm0-90C19.79,4,4,36.55,4,56.22c0,18.62,15.15,33.78,33.78,33.78s33.78-15.15,33.78-33.78c0-19.67-15.79-52.22-33.78-52.22Z"/><path class="cls-1" d="m53.37,26.2c-.7,0-1.38-.37-1.75-1.02-3.99-7.11-9.04-11.18-13.85-11.18-1.1,0-2-.9-2-2s.9-2,2-2c8.63,0,14.57,8.29,17.34,13.22.54.96.2,2.18-.77,2.72-.31.17-.65.26-.98.26Z"/></g></symbol></defs><use width="75.55" height="94" transform="translate(9.81) scale(1.06)" xlink:href="#Egg_Icon"/></svg>