<?xml version="1.0" encoding="UTF-8"?><svg id="Layer_1" xmlns="http://www.w3.org/2000/svg" xmlns:xlink="http://www.w3.org/1999/xlink" viewBox="0 0 100 100"><defs><style>.cls-1{fill:#c2b8b6;}</style><symbol id="Hearth_Icon" viewBox="0 0 88.68 81.7"><g><path class="cls-1" d="m44.34,81.7c-.51,0-1.02-.2-1.41-.59L7.57,45.75c-.06-.06-.12-.13-.17-.19C2.63,40.52,0,33.94,0,27,0,12.11,12.11,0,27,0c6.39,0,12.48,2.23,17.34,6.31C49.2,2.23,55.29,0,61.68,0c14.89,0,27,12.11,27,27,0,6.94-2.63,13.52-7.4,18.56-.05.07-.11.13-.17.19l-35.36,35.36c-.39.39-.9.59-1.41.59ZM10.55,43.08l33.79,33.79,33.79-33.79s.07-.09.11-.13c4.15-4.31,6.43-9.97,6.43-15.95,0-12.68-10.32-23-23-23-5.97,0-11.64,2.29-15.95,6.43-.38.37-.93.59-1.44.56-.15,0-.29-.02-.43-.06-.34-.08-.66-.25-.92-.5-4.31-4.15-9.97-6.43-15.95-6.43C14.32,4,4,14.32,4,27c0,5.97,2.29,11.64,6.43,15.95.04.04.08.08.12.13Z"/><path class="cls-1" d="m76.84,28.24c-1.1,0-2-.9-2-2,0-7.17-5.83-13-13-13-1.1,0-2-.9-2-2s.9-2,2-2c9.37,0,17,7.63,17,17,0,1.1-.9,2-2,2Z"/></g></symbol></defs><use width="88.68" height="81.7" transform="translate(0 3.94) scale(1.13)" xlink:href="#Hearth_Icon"/></svg>