<?xml version="1.0" encoding="UTF-8"?><svg id="Layer_1" xmlns="http://www.w3.org/2000/svg" xmlns:xlink="http://www.w3.org/1999/xlink" viewBox="0 0 100 100"><defs><style>.cls-1{fill:#c2b8b6;}</style><symbol id="Quest_Menu_Icon" viewBox="0 0 94 94"><path class="cls-1" d="m80.75,0h-45c-7.31,0-13.25,5.94-13.25,13.25v65.5H2c-1.1,0-2,.9-2,2,0,7.31,5.94,13.25,13.25,13.25h45c7.31,0,13.25-5.94,13.25-13.25V15.25h20.5c1.1,0,2-.9,2-2,0-7.31-5.94-13.25-13.25-13.25ZM13.25,90c-4.41,0-8.12-3.11-9.03-7.25h40.93c.43,2.8,1.73,5.31,3.62,7.25H13.25Zm54.25-9.25c0,5.1-4.15,9.25-9.25,9.25s-9.25-4.15-9.25-9.25c0-1.1-.9-2-2-2h-20.5V13.25c0-5.1,4.15-9.25,9.25-9.25h35.53c-2.34,2.39-3.78,5.65-3.78,9.25v67.5Zm4.22-69.5c.92-4.14,4.62-7.25,9.03-7.25s8.12,3.11,9.03,7.25h-18.06Z"/></symbol></defs><use width="94" height="94" transform="scale(1.06)" xlink:href="#Quest_Menu_Icon"/></svg>