<?xml version="1.0" encoding="UTF-8"?>
<svg id="Layer_1" data-name="Layer 1" xmlns="http://www.w3.org/2000/svg" xmlns:xlink="http://www.w3.org/1999/xlink" viewBox="0 0 100 100">
  <defs>
    <style>
      .cls-1 {
        fill: #beb7b5;
      }

      .cls-2 {
        fill: #29120e;
      }
    </style>
    <symbol id="R_Icon" viewBox="0 0 100 100">
      <g>
        <circle class="cls-2" cx="50" cy="50" r="50"/>
        <path class="cls-1" d="m71.32,69.52c-.39-.34-.98-.5-1.82-.5h-2.32c-3.57-6.12-6.2-10.23-7.83-12.22-1.55-1.89-3.42-3.62-5.57-5.15,3.79-1.34,6.55-3.03,8.21-5.01,1.74-2.08,2.62-4.32,2.62-6.68,0-3.26-1.42-6.23-4.21-8.82-2.79-2.58-6.27-3.89-10.34-3.89h-19.54c-.84,0-1.43.17-1.82.51-.39.34-.58.8-.58,1.36s.2,1.02.58,1.36c.38.34.98.5,1.82.5h4.1v38.04h-4.1c-.84,0-1.43.17-1.82.51-.39.34-.58.8-.58,1.36s.2.98.58,1.34c.38.35.98.53,1.82.53h13.54c.87,0,1.48-.17,1.86-.53.39-.35.58-.81.58-1.34,0-.56-.2-1.02-.58-1.36-.38-.34-.99-.5-1.86-.5h-5.71v-16.35h9.96c2.78,1.34,5.28,3.23,7.43,5.61,2.17,2.41,5.29,7.24,9.26,14.34l.07.13h4.45c.84,0,1.44-.17,1.82-.53.38-.36.58-.81.58-1.34,0-.56-.2-1.02-.58-1.36Zm-11.96-25.64c-1.01,1.34-2.66,2.53-4.9,3.54-2.25,1.01-4.8,1.52-7.57,1.52h-8.56v-17.96h11.63c3.02,0,5.63.96,7.74,2.86,2.1,1.89,3.17,3.9,3.17,5.97,0,1.37-.51,2.75-1.51,4.08Z"/>
      </g>
    </symbol>
  </defs>
  <use width="100" height="100" transform="translate(0 0)" xlink:href="#R_Icon"/>
</svg>