<?xml version="1.0" encoding="UTF-8"?>
<svg id="Layer_1" data-name="Layer 1" xmlns="http://www.w3.org/2000/svg" xmlns:xlink="http://www.w3.org/1999/xlink" viewBox="0 0 100 100">
  <defs>
    <style>
      .cls-1 {
        fill: #beb7b5;
      }

      .cls-2 {
        fill: #29120e;
      }
    </style>
    <symbol id="ESC_Icon" viewBox="0 0 100 100">
      <g>
        <circle class="cls-2" cx="50" cy="50" r="50"/>
        <g>
          <path class="cls-1" d="m31.53,54.28c-.25.29-.38.71-.38,1.28v4.94h-13.18v-9.56h5.61v1.59c0,.57.13.99.4,1.28.53.57,1.52.59,2.07,0,.27-.29.4-.71.4-1.28v-6.01c0-.58-.13-.99-.4-1.28-.55-.59-1.54-.57-2.07,0-.27.29-.4.71-.4,1.28v1.58h-5.61v-8.59h12.21v4c0,.57.12.99.38,1.28.53.59,1.56.59,2.09,0,.25-.29.38-.71.38-1.28v-6.84H13.14c-.57,0-.99.12-1.28.38-.3.26-.45.62-.45,1.04s.16.78.45,1.04c.29.25.71.38,1.27.38h1.98v21h-1.98c-.57,0-.99.12-1.27.38-.3.26-.45.62-.45,1.04s.15.76.45,1.03c.29.27.71.4,1.28.4h20.85v-7.79c0-.57-.12-.99-.38-1.28-.53-.59-1.56-.59-2.09,0Z"/>
          <path class="cls-1" d="m56.22,49.54c-1-.45-2.73-.87-5.3-1.29-1.46-.24-2.54-.48-3.22-.7-.65-.21-1.25-.49-1.76-.84-.49-.33-.88-.76-1.18-1.29-.29-.52-.44-1.11-.44-1.75,0-1.28.53-2.37,1.63-3.32,1.1-.96,2.62-1.45,4.52-1.45s3.27.46,4.37,1.36c1.09.9,1.65,1.87,1.72,2.95.02.53.15.91.41,1.18.54.56,1.54.54,2.05-.04.25-.29.38-.71.38-1.28v-4.7c0-.57-.12-.99-.38-1.28-.53-.59-1.56-.59-2.09,0-.19.22-.31.5-.35.87-1.78-1.28-3.85-1.92-6.17-1.92-2.65,0-4.82.75-6.45,2.21-1.65,1.48-2.48,3.29-2.48,5.35s.74,3.75,2.21,4.89c1.43,1.12,3.66,1.92,6.83,2.45,2.17.37,3.61.71,4.28,1,.92.4,1.61.94,2.07,1.61.46.67.68,1.43.68,2.3,0,1.44-.6,2.66-1.84,3.73-1.24,1.07-2.97,1.61-5.15,1.61s-3.94-.52-5.21-1.55c-1.26-1.02-1.91-2.11-1.98-3.31-.02-.53-.15-.91-.41-1.18-.54-.56-1.54-.54-2.05.04-.25.29-.38.71-.38,1.3v5.09c0,.58.13.99.4,1.28.55.6,1.56.57,2.07,0,.24-.27.36-.66.38-1.18,1.9,1.57,4.31,2.36,7.18,2.36s5.37-.79,7.14-2.35c1.79-1.58,2.69-3.52,2.69-5.76,0-1.47-.36-2.76-1.06-3.85-.7-1.09-1.75-1.95-3.1-2.55Z"/>
          <path class="cls-1" d="m88.2,57c-.25-.25-.6-.39-.99-.39-.32,0-.79.11-1.22.64-1.12,1.34-2.3,2.35-3.49,3-1.17.64-2.52.97-4.01.97-2.48,0-4.7-.97-6.58-2.89-1.89-1.92-2.84-4.21-2.84-6.82v-3.23c0-1.22.2-2.32.58-3.28.55-1.33,1.29-2.57,2.22-3.67.51-.6,1.21-1.12,2.08-1.54,1.18-.59,2.46-.89,3.79-.89,2.04,0,3.89.62,5.49,1.85,1.15.87,1.74,1.82,1.8,2.91.04.52.18.9.44,1.17.55.57,1.53.53,2.03-.04.25-.29.38-.71.38-1.3v-5.11c0-.57-.12-.99-.38-1.28-.53-.59-1.56-.59-2.09,0-.25.29-.38.71-.38,1.28v.2c-2.11-1.67-4.58-2.52-7.36-2.52-2.06,0-4,.54-5.76,1.6-1.76,1.06-3.17,2.6-4.18,4.57-1,1.96-1.51,3.91-1.51,5.79v3.75c0,1.32.19,2.55.58,3.67.38,1.11,1.1,2.33,2.13,3.62,1.04,1.29,1.9,2.2,2.62,2.75.72.55,1.65,1.04,2.74,1.46,1.42.53,2.85.8,4.24.8,1.6,0,3.21-.36,4.76-1.07,1.56-.71,2.97-1.77,4.21-3.16.74-.81,1.07-1.39,1.07-1.87,0-.38-.13-.71-.39-.97Z"/>
        </g>
      </g>
    </symbol>
  </defs>
  <use width="100" height="100" transform="translate(0 -.07)" xlink:href="#ESC_Icon"/>
</svg>