<?xml version="1.0" encoding="UTF-8"?>
<svg id="Layer_1" data-name="Layer 1" xmlns="http://www.w3.org/2000/svg" xmlns:xlink="http://www.w3.org/1999/xlink" viewBox="0 0 100 100">
  <defs>
    <style>
      .cls-1 {
        fill: #beb7b5;
      }

      .cls-2 {
        fill: #29120e;
      }
    </style>
    <symbol id="Left_Mouse_Button_Icon" viewBox="0 0 100 100">
      <g>
        <circle class="cls-2" cx="50" cy="50" r="50"/>
        <path class="cls-1" d="m62,22.4c3.64,0,6.6,2.96,6.6,6.6v30c0,9.77-7.62,17.92-17.36,18.56-.41.03-.83.04-1.24.04-10.26,0-18.6-8.57-18.6-19.11v-29.49c0-3.64,2.96-6.6,6.6-6.6h24m0-2.4h-24c-4.97,0-9,4.03-9,9v29.49c0,11.86,9.34,21.51,21,21.51.46,0,.93-.02,1.4-.05,10.95-.72,19.6-9.83,19.6-20.95v-30c0-4.97-4.03-9-9-9h0Z"/>
        <path class="cls-1" d="m50,20h-12c-4.97,0-9,4.03-9,9v15h21v-24Z"/>
        <path class="cls-1" d="m62,22.4c3.64,0,6.6,2.96,6.6,6.6v12.6h-16.2v-19.2h9.6m0-2.4h-12v24h21v-15c0-4.97-4.03-9-9-9h0Z"/>
      </g>
    </symbol>
  </defs>
  <use width="100" height="100" xlink:href="#Left_Mouse_Button_Icon"/>
</svg>