<?xml version="1.0" encoding="UTF-8"?>
<svg id="Layer_1" data-name="Layer 1" xmlns="http://www.w3.org/2000/svg" xmlns:xlink="http://www.w3.org/1999/xlink" viewBox="0 0 100 100">
  <defs>
    <style>
      .cls-1 {
        fill: #bfb8b6;
      }
    </style>
    <symbol id="Cross_Icon" viewBox="0 0 100 100">
      <path class="cls-1" d="m79.77,100c-1.72,0-3.45-.66-4.76-1.97l-25.01-25.01-25.01,25.01c-2.62,2.63-6.9,2.63-9.52,0l-13.5-13.5c-2.63-2.63-2.63-6.9,0-9.52l25.01-25.01L1.97,24.99c-2.63-2.63-2.63-6.9,0-9.52L15.47,1.97c2.62-2.62,6.9-2.63,9.52,0l25.02,25.02L75.01,1.97c2.62-2.62,6.9-2.62,9.52,0l13.5,13.5c2.63,2.63,2.63,6.9,0,9.52l-25,25,25,25.01c2.63,2.63,2.63,6.9,0,9.52l-13.5,13.5c-1.31,1.31-3.04,1.97-4.76,1.97Zm-29.77-33.33l28.18,28.18c.87.87,2.3.87,3.17,0l13.5-13.5c.87-.87.87-2.3,0-3.17l-28.17-28.2,28.17-28.17c.87-.87.87-2.3,0-3.17l-13.5-13.5c-.87-.87-2.3-.87-3.17,0l-28.15,28.22L21.82,5.14c-.87-.87-2.3-.87-3.17,0l-13.5,13.5c-.87.87-.87,2.3,0,3.17l28.25,28.12-28.25,28.25c-.87.87-.87,2.3,0,3.17l13.5,13.5c.87.87,2.3.87,3.17,0l28.18-28.18Z"/>
    </symbol>
  </defs>
  <use width="100" height="100" transform="translate(0 0)" xlink:href="#Cross_Icon"/>
</svg>